<svg
                  width="24"
                  height="24"
                  viewBox="0 0 24 24"
                  fill="none"
                  xmlns="http://www.w3.org/2000/svg"
                >
                  <path
                    d="M12 0C9.62664 0 7.30656 0.703788 5.33317 2.02237C3.35978 3.34094 1.8217 5.21509 0.913452 7.40781C0.00519939 9.60052 -0.232441 12.0133 0.230582 14.3411C0.693605 16.6689 1.8365 18.8071 3.51473 20.4853C5.19296 22.1635 7.33116 23.3064 9.65893 23.7694C11.9867 24.2325 14.3995 23.9948 16.5922 23.0866C18.7849 22.1783 20.6591 20.6403 21.9777 18.6669C23.2962 16.6935 24 14.3734 24 12C24 8.81741 22.7357 5.76516 20.4853 3.51472C18.2349 1.26428 15.1826 0 12 0ZM17.5342 15.7453C17.2532 15.7848 15.8874 15.7453 15.8163 15.7453C15.4632 15.7489 15.1229 15.6133 14.869 15.3679C14.58 15.09 14.3195 14.7853 14.0432 14.4948C13.9597 14.4068 13.8694 14.3255 13.7732 14.2516C13.5474 14.0779 13.3248 14.1174 13.219 14.3826C13.1364 14.6702 13.0793 14.9645 13.0484 15.2621C13.0462 15.3243 13.0317 15.3855 13.0058 15.4421C12.9799 15.4987 12.9431 15.5497 12.8975 15.5921C12.8519 15.6345 12.7984 15.6674 12.74 15.6891C12.6817 15.7108 12.6196 15.7208 12.5574 15.7184C12.3711 15.7279 12.1848 15.7311 12 15.7184C11.3279 15.7157 10.666 15.5534 10.069 15.2448C9.42409 14.8844 8.86198 14.3927 8.41896 13.8016C7.70981 12.8659 7.09721 11.8607 6.59054 10.8016C6.5637 10.7495 6.03159 9.61738 6.01896 9.56369C5.98738 9.49005 5.98499 9.40715 6.01225 9.3318C6.03952 9.25645 6.09441 9.19429 6.1658 9.1579C6.26054 9.12159 8.01475 9.1579 8.04317 9.1579C8.17371 9.15605 8.3014 9.19617 8.40743 9.27236C8.51346 9.34854 8.59222 9.45675 8.63212 9.58106C8.95657 10.4101 9.3996 11.1877 9.94738 11.8895C10.0242 11.9829 10.1141 12.0648 10.2142 12.1326C10.24 12.1576 10.272 12.1753 10.3069 12.1838C10.3418 12.1924 10.3784 12.1914 10.4128 12.1811C10.4472 12.1708 10.4783 12.1516 10.5028 12.1253C10.5272 12.099 10.5443 12.0667 10.5521 12.0316C10.6216 11.8028 10.6625 11.5662 10.6737 11.3274C10.6832 10.8537 10.6737 10.5379 10.6469 10.0642C10.6564 9.9028 10.6019 9.74412 10.4952 9.62263C10.3885 9.50114 10.2382 9.42663 10.0769 9.41527C9.93791 9.39159 9.91896 9.2779 10.0153 9.16422C10.2 8.92896 10.4558 8.89106 10.7337 8.87685C11.1537 8.85317 11.5753 8.87685 11.9969 8.87685H12.0884C12.2735 8.87639 12.4582 8.89491 12.6395 8.93211C12.7455 8.95383 12.8417 9.00921 12.9137 9.09002C12.9856 9.17082 13.0296 9.27272 13.039 9.38054C13.0602 9.49985 13.0697 9.62095 13.0674 9.74211C13.0563 10.26 13.0311 10.7763 13.0248 11.2926C13.0209 11.4972 13.0394 11.7016 13.08 11.9021C13.1416 12.1769 13.3295 12.2463 13.5221 12.0474C13.7622 11.7892 13.9823 11.5131 14.1805 11.2216C14.5367 10.6921 14.8303 10.123 15.0553 9.5258C15.1769 9.21948 15.27 9.15159 15.6 9.15159H17.4616C17.5726 9.14989 17.6832 9.16425 17.79 9.19422C17.8277 9.20425 17.8628 9.22192 17.8933 9.24611C17.9239 9.2703 17.9491 9.30052 17.9675 9.33486C17.9858 9.36922 17.9969 9.40697 18.0001 9.44579C18.0032 9.48461 17.9984 9.52367 17.9858 9.56053C17.8773 9.95677 17.6905 10.3272 17.4363 10.65C17.0574 11.1869 16.6595 11.7095 16.2711 12.2384C16.2216 12.3058 16.1767 12.3765 16.1369 12.45C15.9916 12.7137 16.0027 12.8605 16.2127 13.0816C16.5505 13.4305 16.9121 13.7558 17.2374 14.1126C17.4769 14.3735 17.6935 14.6545 17.8848 14.9526C18.1248 15.3284 17.9779 15.6821 17.5342 15.7453Z"
                    fill="#FAE042"
                  />
                </svg>