<svg
                  width="24"
                  height="24"
                  viewBox="0 0 24 24"
                  fill="none"
                  xmlns="http://www.w3.org/2000/svg"
                >
                  <g clip-path="url(#clip0_37_141)">
                    <path
                      d="M12 0C5.3736 0 0 5.3736 0 12C0 18.6264 5.3736 24 12 24C18.6264 24 24 18.6264 24 12C24 5.3736 18.6264 0 12 0ZM12.2543 18.9868C12.2542 18.9868 12.2545 18.9868 12.2543 18.9868H12.2514C11.0493 18.9862 9.8681 18.6848 8.81909 18.1128L5.01178 19.1113L6.03076 15.3906C5.40216 14.3018 5.07147 13.0666 5.07202 11.8011C5.07367 7.84241 8.29559 4.62177 12.2543 4.62177C14.1755 4.6225 15.9789 5.3703 17.3348 6.72729C18.6909 8.08447 19.4372 9.88843 19.4365 11.8068C19.4348 15.7657 16.2125 18.9868 12.2543 18.9868Z"
                      fill="#FAE042"
                    />
                    <path
                      d="M12.2563 5.83447C8.96356 5.83447 6.28564 8.51129 6.28418 11.8017C6.28381 12.9293 6.59949 14.0273 7.19696 14.9775L7.33887 15.2032L6.73572 17.4055L8.99506 16.8129L9.21314 16.9422C10.1296 17.486 11.1802 17.7737 12.2514 17.774H12.2538C15.544 17.774 18.2219 15.097 18.2234 11.8065C18.2239 10.2118 17.6036 8.71252 16.4766 7.58459C15.3495 6.45667 13.8506 5.83502 12.2563 5.83447ZM15.7676 14.3674C15.618 14.7863 14.9011 15.1688 14.5563 15.2205C14.2471 15.2666 13.856 15.2858 13.426 15.1494C13.1653 15.0667 12.8311 14.9562 12.4028 14.7715C10.6027 13.9944 9.427 12.1824 9.33728 12.0626C9.24756 11.9429 8.60449 11.0898 8.60449 10.2067C8.60449 9.32373 9.06812 8.88959 9.23254 8.71014C9.39716 8.53052 9.59161 8.48566 9.71118 8.48566C9.83075 8.48566 9.9505 8.48676 10.0551 8.49188C10.1653 8.49738 10.3132 8.44995 10.4588 8.79987C10.6084 9.15912 10.9673 10.0421 11.0121 10.1318C11.057 10.2217 11.0869 10.3264 11.0272 10.4462C10.9673 10.5659 10.7684 10.8243 10.5786 11.0598C10.4989 11.1584 10.3951 11.2463 10.4998 11.426C10.6044 11.6054 10.9647 12.193 11.4981 12.6687C12.1837 13.2799 12.7619 13.4692 12.9413 13.5591C13.1206 13.6489 13.2253 13.6339 13.3301 13.5143C13.4346 13.3945 13.7787 12.9904 13.8983 12.8108C14.0178 12.6312 14.1376 12.6612 14.302 12.7211C14.4666 12.7808 15.3488 13.2149 15.5283 13.3046C15.7077 13.3945 15.8273 13.4394 15.8721 13.5143C15.9172 13.5892 15.9172 13.9482 15.7676 14.3674Z"
                      fill="#FAE042"
                    />
                  </g>
                  <defs>
                    <clipPath id="clip0_37_141">
                      <rect width="24" height="24" fill="white" />
                    </clipPath>
                  </defs>
                </svg>