<svg
                  width="18"
                  height="30"
                  viewBox="0 0 18 30"
                  fill="none"
                  xmlns="http://www.w3.org/2000/svg"
                >
                  <path
                    d="M0.817017 12.9376C0.293661 13.4854 -6.89512e-07 14.2258 -6.55783e-07 14.9974C-6.22054e-07 15.7691 0.293661 16.5094 0.817017 17.0573L12.3879 29.0765C12.6451 29.362 12.955 29.5908 13.2991 29.7494C13.6433 29.908 14.0146 29.9931 14.3911 29.9996C14.7676 30.0061 15.1414 29.9339 15.4905 29.7873C15.8395 29.6407 16.1566 29.4227 16.4228 29.1463C16.6891 28.8699 16.899 28.5407 17.0402 28.1782C17.1814 27.8158 17.2509 27.4276 17.2447 27.0367C17.2384 26.6458 17.1564 26.2603 17.0037 25.9029C16.851 25.5456 16.6305 25.2238 16.3556 24.9568L6.76859 14.9974L16.3605 5.04323C16.6355 4.77616 16.8559 4.45439 17.0086 4.09706C17.1614 3.73973 17.2433 3.35416 17.2496 2.96327C17.2559 2.57239 17.1864 2.18418 17.0452 1.82177C16.904 1.45935 16.694 1.13013 16.4278 0.853692C16.1616 0.577256 15.8445 0.359256 15.4954 0.212665C15.1464 0.0660737 14.7725 -0.00610988 14.396 0.000407543C14.0196 0.00692497 13.6482 0.0920099 13.3041 0.2506C12.9599 0.409191 12.65 0.638044 12.3928 0.923541L0.817017 12.9376Z"
                    fill="white"
                  />
                </svg>