<?xml version="1.0" standalone="no"?>
<!DOCTYPE svg PUBLIC "-//W3C//DTD SVG 20010904//EN"
 "http://www.w3.org/TR/2001/REC-SVG-20010904/DTD/svg10.dtd">
<svg version="1.0" xmlns="http://www.w3.org/2000/svg"
 width="32.000000pt" height="32.000000pt" viewBox="0 0 32.000000 32.000000"
 preserveAspectRatio="xMidYMid meet">

<g transform="translate(0.000000,32.000000) scale(0.100000,-0.100000)"
fill="#000000" stroke="none">
<path d="M128 299 c-10 -5 -18 -17 -18 -24 0 -8 -4 -15 -10 -15 -5 0 -10 -4
-10 -10 0 -6 27 -10 60 -10 55 0 60 2 60 21 0 39 -46 60 -82 38z"/>
<path d="M70 135 c-10 -12 -10 -18 1 -31 12 -14 14 -14 20 3 17 41 4 58 -21
28z"/>
<path d="M224 130 c3 -14 6 -29 6 -34 0 -5 7 -3 15 4 8 7 15 17 15 23 0 6 -3
7 -7 4 -3 -4 -12 1 -20 11 -13 16 -14 15 -9 -8z"/>
<path d="M107 98 c-2 -7 -1 -22 4 -33 8 -19 8 -19 15 3 5 16 14 22 35 22 19 0
29 -5 29 -15 0 -8 5 -15 10 -15 6 0 10 11 10 25 0 23 -3 25 -49 25 -30 0 -51
-5 -54 -12z"/>
<path d="M148 73 c6 -2 18 -2 25 0 6 3 1 5 -13 5 -14 0 -19 -2 -12 -5z"/>
</g>
</svg>
