  <svg
                  width="18"
                  height="30"
                  viewBox="0 0 18 30"
                  fill="none"
                  xmlns="http://www.w3.org/2000/svg"
                >
                  <path
                    d="M17.1475 17.0624C17.6936 16.5146 18 15.7742 18 15.0026C18 14.2309 17.6936 13.4906 17.1475 12.9427L5.07354 0.923539C4.80514 0.638041 4.48177 0.409187 4.12266 0.250597C3.76355 0.0920069 3.37605 0.00692142 2.98321 0.000404388C2.59038 -0.00611265 2.20024 0.066072 1.83602 0.212662C1.4718 0.359253 1.14094 0.577253 0.863121 0.853689C0.585308 1.13013 0.366222 1.45935 0.218901 1.82176C0.0715808 2.18418 -0.000965231 2.57238 0.00558268 2.96327C0.0121325 3.35415 0.0976427 3.73973 0.257023 4.09706C0.416403 4.45439 0.6464 4.77616 0.933321 5.04323L10.9371 15.0026L0.928143 24.9568C0.641223 25.2238 0.411231 25.5456 0.251849 25.9029C0.092469 26.2603 0.00695875 26.6458 0.000410805 27.0367C-0.00613905 27.4276 0.0664031 27.8158 0.213723 28.1782C0.361045 28.5406 0.580134 28.8699 0.857947 29.1463C1.13576 29.4227 1.46662 29.6407 1.83085 29.7873C2.19507 29.9339 2.5852 30.0061 2.97804 29.9996C3.37087 29.9931 3.75837 29.908 4.11748 29.7494C4.47659 29.5908 4.79997 29.362 5.06836 29.0765L17.1475 17.0624Z"
                    fill="white"
                  />
                </svg>