<svg width="47" height="47" viewBox="0 0 47 47" fill="none" xmlns="http://www.w3.org/2000/svg">
<circle cx="23.5" cy="23.5" r="23.5" fill="url(#paint0_linear_73_36)" fill-opacity="0.75"/>
<path d="M35.7822 23.1525C35.506 22.5353 35.0033 22.0677 34.3665 21.836C34.2324 21.7872 34.0825 21.8108 33.9699 21.8986C33.8574 21.9864 33.7979 22.1259 33.8124 22.2679L33.9462 23.5681C33.9743 23.8408 33.7753 24.0855 33.5025 24.1136C33.3705 24.1271 33.241 24.0885 33.1379 24.0047C33.0349 23.9208 32.9707 23.802 32.9571 23.6698L32.8248 22.3845C32.8101 22.2416 32.7224 22.1165 32.5931 22.0539C32.4637 21.9914 32.3113 22.0001 32.1901 22.0773C31.7977 22.3267 31.4856 22.6785 31.2873 23.0947C30.9387 23.8264 30.9689 24.6832 31.3681 25.3867C31.7437 26.0486 31.7919 26.8464 31.5002 27.5757L30.9321 28.9963C30.8471 29.2088 30.9505 29.45 31.1631 29.5351C31.3757 29.62 31.6168 29.5167 31.7018 29.3041L32.2699 27.8836C32.6557 26.9189 32.5898 25.8597 32.0891 24.9776C31.8234 24.5093 31.8035 23.9387 32.0357 23.4513C32.0528 23.4156 32.071 23.3807 32.0905 23.3465L32.1325 23.7548C32.1687 24.1072 32.3401 24.4244 32.6149 24.6479C32.8898 24.8714 33.2354 24.9747 33.5876 24.9382C34.315 24.8633 34.8459 24.2107 34.771 23.4833L34.7251 23.0373C34.8482 23.1689 34.9497 23.3215 35.0257 23.4911C35.2094 23.9017 35.2186 24.3579 35.0516 24.7755C34.9536 25.0208 34.8036 25.2325 34.6059 25.4046C34.1907 25.766 33.8659 26.2205 33.6667 26.7188L32.7741 28.9506C32.3884 29.9151 32.4542 30.9743 32.9549 31.8566C33.2206 32.3249 33.2405 32.8954 33.0083 33.3828C32.9913 33.4185 32.973 33.4534 32.9536 33.4876L32.9116 33.0794C32.8754 32.727 32.704 32.4098 32.4292 32.1863C32.1544 31.9628 31.8094 31.8597 31.4566 31.8959C31.2289 31.9193 31.0633 32.1229 31.0867 32.3507C31.1102 32.5784 31.3135 32.744 31.5415 32.7205C31.6733 32.7069 31.8031 32.7456 31.9061 32.8294C32.0092 32.9132 32.0734 33.0321 32.0869 33.1643L32.2193 34.4496C32.234 34.5925 32.3217 34.7176 32.451 34.7802C32.5082 34.8079 32.57 34.8216 32.6316 34.8216C32.7092 34.8216 32.7865 34.7999 32.8541 34.7569C33.2464 34.5074 33.5585 34.1556 33.7568 33.7395C34.1054 33.0079 34.0752 32.1511 33.676 31.4475C33.3003 30.7856 33.2522 29.9878 33.5439 29.2585L34.4365 27.0267C34.5871 26.65 34.8339 26.3053 35.1503 26.0298C35.444 25.7741 35.6762 25.4468 35.8215 25.0834C36.0723 24.4555 36.0584 23.7698 35.7822 23.1525Z" fill="#FAE042"/>
<path d="M26.0747 24.2403C25.9129 24.0784 25.6505 24.0785 25.4885 24.2403C25.1495 24.5794 24.6987 24.7661 24.2191 24.7661C23.7396 24.7661 23.2888 24.5794 22.9498 24.2403C22.7879 24.0784 22.5255 24.0784 22.3636 24.2403C22.2017 24.4022 22.2017 24.6646 22.3636 24.8265C22.8592 25.3222 23.5182 25.5951 24.2192 25.5951C24.9202 25.5951 25.5791 25.3222 26.0748 24.8265C26.2367 24.6646 26.2367 24.4022 26.0747 24.2403Z" fill="#FAE042"/>
<path d="M21.7592 20.5894C21.5303 20.5894 21.3447 20.775 21.3447 21.0039V21.6668C21.3447 21.8957 21.5303 22.0813 21.7592 22.0813C21.9881 22.0813 22.1737 21.8957 22.1737 21.6668V21.0039C22.1737 20.775 21.9881 20.5894 21.7592 20.5894Z" fill="#FAE042"/>
<path d="M27.9193 19.4951C27.5878 19.1638 27.1473 18.9812 26.6785 18.9812C26.2098 18.9812 25.7692 19.1637 25.4378 19.4951C25.2759 19.657 25.2759 19.9195 25.4378 20.0813C25.5997 20.2432 25.8621 20.2431 26.024 20.0813C26.1988 19.9064 26.4312 19.8101 26.6785 19.8101C26.9258 19.8101 27.1582 19.9064 27.3331 20.0813C27.414 20.1622 27.5201 20.2027 27.6262 20.2027C27.7322 20.2027 27.8383 20.1623 27.9192 20.0813C28.0812 19.9194 28.0812 19.657 27.9193 19.4951Z" fill="#FAE042"/>
<path d="M22.9994 19.4948C22.3153 18.8106 21.2021 18.8107 20.5179 19.4948C20.356 19.6567 20.356 19.9191 20.5179 20.081C20.6798 20.2428 20.9422 20.2428 21.104 20.081C21.4651 19.72 22.0523 19.7201 22.4132 20.081C22.4941 20.1619 22.6002 20.2024 22.7063 20.2024C22.8124 20.2024 22.9185 20.162 22.9994 20.081C23.1612 19.9191 23.1612 19.6566 22.9994 19.4948Z" fill="#FAE042"/>
<path d="M26.6792 20.5891C26.4502 20.5891 26.2646 20.7747 26.2646 21.0036V21.6666C26.2646 21.8955 26.4502 22.0811 26.6792 22.0811C26.9081 22.0811 27.0937 21.8955 27.0937 21.6666V21.0036C27.0936 20.7747 26.9081 20.5891 26.6792 20.5891Z" fill="#FAE042"/>
<path d="M28.9825 26.839C28.7869 26.7203 28.5319 26.7826 28.4131 26.9782C28.2943 27.174 28.3566 27.4289 28.5523 27.5476C29.3518 28.033 29.8291 28.8797 29.8291 29.8129V34.615H28.8003V28.3048C28.8003 28.0759 28.6148 27.8903 28.3858 27.8903C28.1569 27.8903 27.9713 28.0759 27.9713 28.3048V34.615H27.1624V32.3666C27.1624 32.1377 26.9769 31.9521 26.7479 31.9521H21.6914C21.4625 31.9521 21.2769 32.1377 21.2769 32.3666V34.615H20.468V28.3048C20.468 28.0759 20.2824 27.8903 20.0535 27.8903C19.8245 27.8903 19.639 28.0759 19.639 28.3048V34.615H18.6102V29.8129C18.6102 28.8796 19.0873 28.0328 19.8864 27.5476C20.0821 27.4288 20.1444 27.1739 20.0256 26.9782C19.9069 26.7825 19.652 26.7203 19.4562 26.839C18.4074 27.4758 17.7812 28.5875 17.7812 29.8129V35.0294C17.7812 35.2583 17.9668 35.4439 18.1958 35.4439H21.6914H26.748H30.2437C30.4726 35.4439 30.6582 35.2583 30.6582 35.0294V29.8129C30.6581 28.5877 30.0317 27.476 28.9825 26.839ZM26.3335 34.615H22.1059V32.7811H26.3335V34.615Z" fill="#FAE042"/>
<path d="M26.6572 28.1055C26.4283 28.1055 26.2427 28.2911 26.2427 28.52C26.2427 29.6361 25.3346 30.5442 24.2185 30.5442C23.1023 30.5442 22.1943 29.6361 22.1943 28.52C22.1943 28.2911 22.0087 28.1055 21.7797 28.1055C21.5508 28.1055 21.3652 28.2911 21.3652 28.52C21.3652 30.0932 22.6452 31.3732 24.2184 31.3732C25.7917 31.3732 27.0716 30.0932 27.0716 28.52C27.0717 28.2911 26.8862 28.1055 26.6572 28.1055Z" fill="#FAE042"/>
<path d="M24.8546 20.175C24.6256 20.175 24.4401 20.3606 24.4401 20.5896V22.358C24.4401 22.48 24.3409 22.5791 24.219 22.5791C24.0971 22.5791 23.998 22.48 23.998 22.358V20.5896C23.998 20.3606 23.8125 20.175 23.5835 20.175C23.3545 20.175 23.1689 20.3606 23.1689 20.5896V22.358C23.1689 22.9371 23.64 23.4081 24.219 23.4081C24.7981 23.4081 25.2691 22.9371 25.2691 22.358V20.5896C25.269 20.3606 25.0835 20.175 24.8546 20.175Z" fill="#FAE042"/>
<path d="M31.69 20.635C31.69 19.7585 31.0245 19.0348 30.1722 18.9416C30.1722 18.9416 30.1624 18.3451 30.1543 18.2335L30.0684 16.4169C30.0681 16.4127 30.0671 16.4089 30.0668 16.4048L30.0682 16.4047L29.8886 14.0723C29.8032 12.9712 29.0222 12.0689 27.9452 11.827L24.3217 11.0129C24.2583 10.9967 24.1921 10.9957 24.1283 11.0101L20.4935 11.8269C19.4159 12.069 18.6348 12.9714 18.5501 14.0725L18.3705 16.4047L18.3714 16.4047C18.371 16.4088 18.37 16.4127 18.3698 16.4169L18.2838 18.2333C18.2758 18.3447 18.2657 18.9415 18.2657 18.9415C17.4135 19.0346 16.748 19.7584 16.748 20.6349C16.748 21.4017 17.251 22.0512 17.9516 22.2646C17.886 23.7944 18.5957 25.2786 19.8418 26.1836L22.1104 27.8315C22.741 28.2898 23.4799 28.5189 24.219 28.5188C24.958 28.5188 25.6973 28.2897 26.328 27.8316L28.5968 26.1836C29.8426 25.2783 30.5521 23.794 30.4863 22.2645C31.187 22.0512 31.69 21.4017 31.69 20.635ZM18.0279 21.4007C17.7582 21.2515 17.5769 20.9646 17.5769 20.6349C17.5769 20.2466 17.8314 19.917 18.1823 19.803L18.0279 21.4007ZM27.7636 12.6357C28.4833 12.7974 29.0051 13.4004 29.0621 14.1361L29.1985 15.9063C28.8641 15.8333 28.5264 15.7676 28.1874 15.709L28.1048 14.0826C28.0763 13.5231 27.9182 13.013 27.669 12.6144L27.7636 12.6357ZM24.6341 11.9935L26.487 12.6238C26.9077 12.7668 27.2399 13.3981 27.2769 14.1248L27.3508 15.5797C26.4506 15.4581 25.5403 15.3885 24.6341 15.3723V11.9935H24.6341ZM21.1618 14.1248C21.1989 13.3982 21.5309 12.7669 21.9513 12.6237L23.8052 11.9931V15.372C22.8975 15.3879 21.9877 15.4575 21.0876 15.5795L21.1618 14.1248ZM19.3767 14.136C19.4333 13.4004 19.9551 12.7974 20.6752 12.6357L20.7697 12.6144C20.5205 13.013 20.3624 13.5231 20.334 14.0825L20.2509 15.709C19.9122 15.7676 19.5746 15.8332 19.2404 15.9062L19.3767 14.136ZM19.1108 18.2908C19.1112 18.2866 19.1114 18.2824 19.1117 18.2782L19.1831 16.7679C19.6861 16.6524 20.1992 16.553 20.7125 16.4718C21.8666 16.2895 23.0429 16.1972 24.2094 16.1972C24.2127 16.1972 24.2163 16.1972 24.2197 16.1972C25.3886 16.1972 26.5683 16.2896 27.7256 16.4718C28.239 16.553 28.7522 16.6524 29.2553 16.7679L29.3267 18.2782C29.3269 18.2823 29.3272 18.2864 29.3275 18.2905C29.3408 18.4621 29.2609 18.618 29.1139 18.7077C28.9677 18.7967 28.7939 18.7963 28.6489 18.7069C27.3203 17.8854 25.7885 17.4512 24.2192 17.4512C22.6499 17.4512 21.118 17.8854 19.7897 18.7067C19.6443 18.7965 19.4703 18.7968 19.3241 18.7076C19.1772 18.6179 19.0975 18.4622 19.1108 18.2908ZM28.1095 25.5129L25.8408 27.1609C24.8707 27.8656 23.5673 27.8656 22.5976 27.1609L20.3289 25.5129C19.2536 24.7319 18.665 23.4249 18.793 22.1019L19.0449 19.4947C19.2082 19.5666 19.3822 19.6028 19.5562 19.6028C19.7876 19.6028 20.0191 19.5392 20.2253 19.4119C21.4227 18.6715 22.8038 18.2802 24.2191 18.2802C25.6343 18.2802 27.0154 18.6716 28.2132 19.4121C28.5739 19.6348 29.0123 19.6624 29.393 19.4948L29.6449 22.1019C29.7728 23.4248 29.1845 24.7319 28.1095 25.5129ZM30.41 21.4006L30.2556 19.8031C30.6066 19.9171 30.8611 20.2467 30.8611 20.6349C30.8611 20.9645 30.6799 21.2514 30.41 21.4006Z" fill="#FAE042"/>
<path d="M24.2192 25.885C23.9902 25.885 23.8047 26.0706 23.8047 26.2995V26.9258C23.8047 27.1548 23.9902 27.3404 24.2192 27.3404C24.4482 27.3404 24.6337 27.1548 24.6337 26.9258V26.2995C24.6337 26.0706 24.4481 25.885 24.2192 25.885Z" fill="#FAE042"/>
<path d="M17.9901 25.3694C17.8448 25.1925 17.5837 25.1669 17.4067 25.3121C17.1774 25.5004 16.9229 25.6538 16.6503 25.768C16.2356 25.9418 15.9676 26.3439 15.9676 26.7925V27.0432H14.9778V26.7925C14.9778 26.3439 14.7098 25.9418 14.2951 25.768C13.2871 25.3456 12.5957 24.4297 12.4514 23.3685H17.3661C17.595 23.3685 17.7806 23.1829 17.7806 22.954C17.7806 22.7251 17.595 22.5395 17.3661 22.5395H12.1414C11.9691 22.5395 11.829 22.3993 11.829 22.2271C11.829 22.0548 11.9691 21.9147 12.1414 21.9147H15.9844C16.2133 21.9147 16.3989 21.7291 16.3989 21.5002C16.3989 21.2713 16.2133 21.0857 15.9844 21.0857H12.1414C11.512 21.0857 11 21.5978 11 22.2271C11 22.6623 11.2449 23.0411 11.6041 23.2336C11.7078 24.6871 12.615 25.9628 13.9746 26.5326C14.0804 26.577 14.1487 26.679 14.1487 26.7926V27.4671C14.1487 27.6446 14.2605 27.7955 14.4172 27.8546L14.3672 30.228C14.3625 30.4568 14.5441 30.6463 14.773 30.6511C15.0019 30.6552 15.1913 30.4742 15.1961 30.2453L15.2459 27.8815H15.6995L15.8335 34.2467C15.8356 34.3445 15.799 34.4369 15.7305 34.5067C15.6621 34.5767 15.5705 34.6151 15.4727 34.6151C15.3749 34.6151 15.2833 34.5766 15.2148 34.5067C15.1464 34.4368 15.1098 34.3444 15.1119 34.2466L15.1721 31.3877C15.1769 31.1589 14.9953 30.9694 14.7664 30.9646C14.536 30.9602 14.3481 31.1415 14.3433 31.3704L14.2831 34.2292C14.2763 34.5517 14.3969 34.8563 14.6226 35.0867C14.8482 35.3172 15.1501 35.4442 15.4727 35.4442C15.7953 35.4442 16.0972 35.3172 16.3229 35.0867C16.5485 34.8563 16.6691 34.5517 16.6624 34.2292L16.5282 27.8546C16.685 27.7955 16.7967 27.6445 16.7967 27.4671V26.7925C16.7967 26.6789 16.8651 26.5769 16.9709 26.5326C17.3176 26.3873 17.6413 26.1922 17.9329 25.9528C18.1097 25.8075 18.1353 25.5463 17.9901 25.3694Z" fill="#FAE042"/>
<path d="M33.6397 14.078C33.6341 14.0515 33.6264 14.0256 33.6159 14.0007C33.6054 13.9752 33.5927 13.9515 33.5777 13.9288C33.5628 13.9062 33.5451 13.8852 33.5263 13.8658C33.507 13.847 33.486 13.8294 33.4633 13.8144C33.4406 13.7995 33.4169 13.7868 33.3915 13.7763C33.3667 13.7658 33.3406 13.758 33.3141 13.7525C33.2605 13.742 33.2052 13.742 33.1522 13.7525C33.1257 13.758 33.0997 13.7658 33.0748 13.7763C33.0494 13.7868 33.0256 13.7995 33.003 13.8144C32.9803 13.8294 32.9593 13.847 32.9399 13.8658C32.9211 13.8852 32.9035 13.9062 32.8885 13.9288C32.8736 13.9515 32.8609 13.9753 32.8504 14.0007C32.8399 14.0255 32.8322 14.0515 32.8266 14.078C32.8211 14.1046 32.8184 14.1322 32.8184 14.1593C32.8184 14.2682 32.8631 14.3748 32.9399 14.4522C32.9593 14.471 32.9803 14.4887 33.0029 14.5036C33.0256 14.5186 33.0494 14.5313 33.0748 14.5418C33.0996 14.5523 33.1256 14.56 33.1522 14.5656C33.1786 14.5711 33.2063 14.5739 33.2328 14.5739C33.2598 14.5739 33.2875 14.5711 33.3141 14.5656C33.3405 14.56 33.3666 14.5523 33.3915 14.5418C33.4169 14.5313 33.4406 14.5186 33.4633 14.5036C33.4859 14.4887 33.5069 14.471 33.5263 14.4522C33.5451 14.4329 33.5628 14.4119 33.5777 14.3892C33.5927 14.3666 33.6053 14.3428 33.6158 14.3174C33.6263 14.2926 33.634 14.2666 33.6396 14.24C33.6452 14.2135 33.6479 14.1859 33.6479 14.1593C33.648 14.1322 33.6452 14.1046 33.6397 14.078Z" fill="#FAE042"/>
<path d="M35.1856 14.069C35.4188 13.7505 35.441 13.3402 35.2436 12.9984C35.0463 12.6566 34.6802 12.4708 34.2874 12.5133C34.2205 12.5205 34.1582 12.4843 34.1313 12.4232C33.972 12.0621 33.6279 11.8376 33.2331 11.8376C32.8384 11.8376 32.4943 12.062 32.335 12.4232C32.3081 12.4844 32.245 12.5205 32.1789 12.5133C31.7866 12.4707 31.4201 12.6566 31.2227 12.9984C31.0253 13.3402 31.0476 13.7505 31.2808 14.069C31.3203 14.1229 31.3203 14.1954 31.2808 14.2493C31.0476 14.5679 31.0254 14.978 31.2228 15.3199C31.4202 15.6618 31.7871 15.8475 32.179 15.805C32.2459 15.7978 32.3082 15.834 32.3351 15.8951C32.4943 16.2563 32.8385 16.4807 33.2332 16.4807C33.628 16.4807 33.9721 16.2563 34.1313 15.8951C34.1583 15.834 34.2212 15.7978 34.2875 15.805C34.6799 15.8476 35.0463 15.6618 35.2437 15.3199C35.441 14.9781 35.4188 14.5679 35.1857 14.2493C35.1461 14.1954 35.1461 14.1229 35.1856 14.069ZM34.5167 14.739C34.5678 14.8088 34.5443 14.8732 34.5257 14.9054C34.5071 14.9376 34.4638 14.9902 34.377 14.9809C33.9502 14.9343 33.5462 15.1674 33.3728 15.5607C33.3379 15.6399 33.2703 15.6517 33.2331 15.6517C33.196 15.6517 33.1284 15.6399 33.0935 15.5607C32.9348 15.2006 32.5833 14.975 32.1972 14.975C32.1615 14.975 32.1255 14.977 32.0893 14.9809C32.0037 14.99 31.9592 14.9377 31.9406 14.9054C31.9221 14.8732 31.8985 14.8088 31.9496 14.739C32.2035 14.3922 32.2035 13.9261 31.9496 13.5794C31.8984 13.5095 31.922 13.4451 31.9406 13.4129C31.9591 13.3807 32.0024 13.3282 32.0893 13.3375C32.5159 13.384 32.9201 13.151 33.0935 12.7577C33.1284 12.6785 33.1959 12.6667 33.2331 12.6667C33.2703 12.6667 33.3379 12.6785 33.3727 12.7577C33.5462 13.151 33.9499 13.3839 34.377 13.3375C34.463 13.3281 34.5071 13.3807 34.5257 13.4129C34.5442 13.4451 34.5678 13.5095 34.5168 13.5793C34.2627 13.9262 34.2627 14.3922 34.5167 14.739Z" fill="#FAE042"/>
<path d="M16.3383 15.5502L15.3712 14.5831C15.2094 14.4212 14.9469 14.4212 14.7851 14.5831L13.8179 15.5502C13.4813 15.8869 13.2959 16.3344 13.2959 16.8105C13.2959 17.2865 13.4813 17.7341 13.8179 18.0707C14.1654 18.4182 14.6217 18.5919 15.0782 18.5918C15.5345 18.5918 15.991 18.4181 16.3384 18.0707C16.675 17.7341 16.8604 17.2865 16.8604 16.8105C16.8604 16.3344 16.675 15.8869 16.3383 15.5502ZM15.7522 17.4845C15.3805 17.8563 14.7758 17.8563 14.404 17.4845C14.224 17.3045 14.1248 17.0651 14.1248 16.8105C14.1248 16.5559 14.2239 16.3165 14.404 16.1364L15.0781 15.4623L15.7522 16.1364C15.9322 16.3165 16.0314 16.5559 16.0314 16.8105C16.0314 17.0651 15.9323 17.3045 15.7522 17.4845Z" fill="#FAE042"/>
<defs>
<linearGradient id="paint0_linear_73_36" x1="23.5" y1="47" x2="23.5" y2="-21.8214" gradientUnits="userSpaceOnUse">
<stop/>
<stop offset="1" stop-color="#363636"/>
</linearGradient>
</defs>
</svg>
