<svg width="47" height="47" viewBox="0 0 47 47" fill="none" xmlns="http://www.w3.org/2000/svg">
<circle cx="23.5" cy="23.5" r="23.5" fill="url(#paint0_linear_62_75)" fill-opacity="0.75"/>
<path d="M22.5439 19.5389H24C24.1941 19.5389 24.3515 19.3812 24.3515 19.1867V18.4447H35.6484C35.8426 18.4447 36 18.287 36 18.0925V16.634C36 16.4395 35.8426 16.2818 35.6484 16.2818H29.9925C29.5286 16.2973 29.5258 16.9696 29.9925 16.9862H35.2969V17.7404H24.3515V16.9862H28.4606C28.6547 16.9862 28.8121 16.8286 28.8121 16.634C28.8121 16.4395 28.6547 16.2818 28.4606 16.2818H24.3515V15.5401C24.3515 15.3456 24.1941 15.188 24 15.188H22.5439C22.3498 15.188 22.1924 15.3456 22.1924 15.5401V15.9173H20.7114V15.163H21.0879C21.282 15.163 21.4395 15.0054 21.4395 14.8108V13.3522C21.4395 13.1576 21.282 13 21.0879 13H12.3516C12.1574 13 12 13.1576 12 13.3522V14.8108C12 15.0053 12.1574 15.163 12.3516 15.163H12.728V20.6453C12.728 20.8398 12.8854 20.9974 13.0796 20.9974H13.4557V22.1039C13.4557 22.2984 13.6131 22.4561 13.8073 22.4561H14.1841V24.6689H13.8073C13.6131 24.6689 13.4557 24.8266 13.4557 25.0211V26.4797C13.4557 26.6743 13.6131 26.8319 13.8073 26.8319H14.1843V30.1264C14.6344 39.5474 27.9635 39.1528 27.9918 29.7493H28.3457C28.5399 29.7493 28.6973 29.5917 28.6973 29.3971V27.9382C28.6973 27.7436 28.5399 27.586 28.3457 27.586H27.9918V27.2089C27.9918 26.1967 28.8138 25.3733 29.8242 25.3733H32.3847V25.7504C32.3847 25.945 32.5421 26.1026 32.7362 26.1026H33.8409V26.4796C33.8409 26.6742 33.9983 26.8318 34.1925 26.8318H35.6484C35.8426 26.8318 36 26.6742 36 26.4796V23.5241C36 23.3296 35.8426 23.1719 35.6484 23.1719C35.4543 23.1719 35.2969 23.3296 35.2969 23.5241V26.1275H34.5441V19.5388H35.2969V21.9895C35.2969 22.1841 35.4543 22.3417 35.6484 22.3417C35.8426 22.3417 36 22.1841 36 21.9895V19.1866C36 18.9921 35.8426 18.8344 35.6484 18.8344H34.1925C33.9983 18.8344 33.8409 18.9921 33.8409 19.1866V19.5634H32.7362C32.5421 19.5634 32.3847 19.7211 32.3847 19.9156V20.2929H29.8242C25.8645 20.2929 22.7887 23.6818 22.9204 27.586H22.521C22.3269 27.586 22.1695 27.7437 22.1695 27.9382V29.3972C22.1695 29.5917 22.3269 29.7494 22.521 29.7494H22.9204C23.0104 30.8564 22.2979 31.962 21.0881 31.962C20.0885 31.962 19.2553 31.128 19.2553 30.1264V26.832H19.6318C19.826 26.832 19.9834 26.6743 19.9834 26.4798V25.0212C19.9834 24.8266 19.826 24.669 19.6318 24.669H19.2554V22.4561H19.6318C19.826 22.4561 19.9834 22.2985 19.9834 22.1039V20.9975H20.3598C20.554 20.9975 20.7114 20.8399 20.7114 20.6453V18.8096H22.1923V19.1867C22.1924 19.3812 22.3497 19.5389 22.5439 19.5389ZM33.0878 20.2679H33.8407V25.3983H33.0878V20.2679ZM22.8955 15.8923H23.6484V18.8345H22.8955V15.8923ZM12.7031 13.7044H20.7363V14.4586H12.7031V13.7044ZM22.8726 28.2904H24.667C25.1322 28.2744 25.1324 27.6021 24.667 27.586H23.6235C23.4936 24.0721 26.2496 20.9973 29.8242 20.9973H32.3845V24.6689H29.8242C28.4261 24.6689 27.2887 25.8084 27.2887 27.2089V27.586H26.1994C25.7341 27.602 25.734 28.2743 26.1994 28.2903H27.9942V29.045H22.8726V28.2904ZM21.0881 32.6664C22.647 32.6664 23.7647 31.2484 23.6235 29.7494H27.2887C27.2876 38.2244 15.3014 38.6093 14.8874 30.1264C14.8874 30.1265 14.8874 26.832 14.8874 26.832H18.5521V30.1265C18.5521 31.4897 19.5352 32.6664 21.0881 32.6664ZM19.2802 26.1276H18.911C18.9085 26.1276 18.9061 26.1276 18.9037 26.1276H14.5358C14.5334 26.1276 14.531 26.1276 14.5286 26.1276H14.1588V25.3734H19.2802V26.1276ZM18.5522 24.669H14.8872V22.4561H18.5522V24.669ZM19.2802 21.7517H14.1588V20.9975H19.2802V21.7517ZM20.0083 20.2931H13.4311V15.163H20.0083V20.2931ZM20.7114 18.1052V16.6216H22.1923V18.1052H20.7114Z" fill="#FAE042"/>
<defs>
<linearGradient id="paint0_linear_62_75" x1="23.5" y1="47" x2="23.5" y2="-21.8214" gradientUnits="userSpaceOnUse">
<stop/>
<stop offset="1" stop-color="#363636"/>
</linearGradient>
</defs>
</svg>
