<svg width="47" height="47" viewBox="0 0 47 47" fill="none" xmlns="http://www.w3.org/2000/svg">
<circle cx="23.5" cy="23.5" r="23.5" fill="url(#paint0_linear_73_37)" fill-opacity="0.75"/>
<path d="M35.452 22.3082C35.2812 22.082 35.1047 21.848 35.0766 21.6664C35.0461 21.473 35.1437 21.1891 35.2383 20.9148C35.3758 20.5172 35.5309 20.0664 35.3914 19.6367C35.2496 19.1988 34.8543 18.9227 34.5055 18.6789C34.2711 18.5152 34.0293 18.3461 33.9438 18.1789C33.8563 18.0078 33.8613 17.7094 33.866 17.4211C33.873 16.9984 33.8809 16.5199 33.6133 16.152C33.3445 15.7824 32.8852 15.6422 32.4801 15.5187C32.2055 15.4352 31.9211 15.348 31.7871 15.2141C31.6527 15.0797 31.566 14.7953 31.4824 14.5207C31.359 14.1156 31.2188 13.6562 30.8488 13.3875C30.4813 13.1199 30.0023 13.1273 29.5801 13.1348C29.2918 13.1402 28.993 13.1445 28.8223 13.057C28.6551 12.9719 28.4859 12.7297 28.3223 12.4953C28.0789 12.1465 27.8027 11.7516 27.3648 11.6094C26.9348 11.4699 26.4832 11.625 26.0852 11.7617C25.8109 11.8563 25.5262 11.9535 25.3336 11.9238C25.152 11.8953 24.918 11.7188 24.6914 11.5484C24.3508 11.2914 23.9641 11 23.5 11C23.0359 11 22.6492 11.2914 22.3082 11.5484C22.082 11.7191 21.848 11.8953 21.6664 11.9238C21.4738 11.9547 21.1895 11.8563 20.9148 11.7617C20.5168 11.6246 20.066 11.4695 19.6367 11.6086C19.1988 11.7508 18.9227 12.1457 18.6789 12.4945C18.5152 12.7285 18.3461 12.9707 18.1789 13.0559C18.0078 13.1434 17.709 13.1379 17.4211 13.1336C16.9984 13.1254 16.5199 13.1184 16.152 13.3863C15.7824 13.6551 15.6422 14.1145 15.5187 14.5195C15.4352 14.7945 15.348 15.0785 15.2141 15.2129C15.0797 15.3473 14.7953 15.434 14.5203 15.518C14.1152 15.6414 13.6562 15.7816 13.3871 16.1512C13.1195 16.5188 13.1273 16.9977 13.1344 17.4203C13.1391 17.709 13.1437 18.007 13.0566 18.1785C12.9715 18.3453 12.7293 18.5145 12.4953 18.6781C12.1465 18.9219 11.7516 19.198 11.609 19.6359C11.4695 20.066 11.625 20.5168 11.7621 20.9148C11.8566 21.1895 11.9547 21.473 11.9242 21.6664C11.8957 21.848 11.7195 22.082 11.5488 22.3082C11.2914 22.6492 11 23.0359 11 23.5C11 23.9641 11.2914 24.3508 11.5484 24.6918C11.7191 24.918 11.8953 25.1523 11.9238 25.334L12.6957 25.2125C12.6371 24.8379 12.4008 24.5246 12.1723 24.2215C11.9801 23.9664 11.7812 23.7027 11.7812 23.5C11.7812 23.2973 11.9801 23.0336 12.1723 22.7785C12.4008 22.4754 12.6367 22.1621 12.6957 21.7875C12.7563 21.4023 12.6262 21.025 12.5004 20.6602C12.3984 20.3645 12.293 20.0582 12.352 19.8773C12.4133 19.6887 12.6824 19.5008 12.9426 19.3187C13.2551 19.1004 13.5785 18.8746 13.7523 18.534C13.9281 18.1895 13.9219 17.7922 13.9152 17.4078C13.9102 17.093 13.9051 16.768 14.0187 16.6113C14.134 16.4531 14.4461 16.3578 14.7484 16.2656C15.1148 16.1535 15.4941 16.0379 15.7664 15.7656C16.0387 15.4934 16.1543 15.1145 16.266 14.748C16.3582 14.4461 16.4531 14.1336 16.6117 14.0184C16.7684 13.9043 17.0938 13.9094 17.4082 13.9148C17.7926 13.9211 18.1895 13.9277 18.5344 13.752C18.875 13.5781 19.1008 13.2551 19.3195 12.9422C19.5012 12.682 19.6895 12.4133 19.8781 12.352C20.0586 12.2926 20.3648 12.3988 20.6605 12.5004C21.0258 12.6262 21.4027 12.7559 21.7879 12.6957C22.1621 12.6371 22.4758 12.4008 22.7789 12.1723C23.0336 11.9801 23.2973 11.7812 23.5 11.7812C23.7027 11.7812 23.9664 11.9801 24.2215 12.1723C24.5246 12.4008 24.8379 12.6367 25.2125 12.6957C25.5969 12.7551 25.975 12.6262 26.3398 12.5004C26.6359 12.3984 26.9414 12.2926 27.123 12.352C27.3113 12.4133 27.4996 12.682 27.6816 12.9422C27.9 13.2547 28.1262 13.5781 28.4664 13.752C28.8109 13.9277 29.2098 13.9223 29.5926 13.9148C29.9074 13.9102 30.2328 13.9043 30.3895 14.0184C30.5477 14.1336 30.6426 14.4457 30.7352 14.748C30.8469 15.1145 30.9625 15.4938 31.2348 15.766C31.5066 16.0383 31.8859 16.1539 32.2523 16.2656C32.5539 16.3578 32.8664 16.4531 32.9816 16.6113C33.0957 16.768 33.0902 17.093 33.0852 17.4078C33.0789 17.7922 33.0727 18.1895 33.2484 18.534C33.4223 18.8746 33.7453 19.1004 34.0578 19.3187C34.318 19.5008 34.5867 19.6887 34.6484 19.8777C34.707 20.0586 34.602 20.3645 34.5 20.6602C34.3742 21.025 34.2445 21.4023 34.3047 21.7875C34.3637 22.1617 34.6 22.4754 34.8281 22.7781C35.0199 23.0336 35.2188 23.2973 35.2188 23.5C35.2188 23.7027 35.0199 23.9664 34.8277 24.2219C34.5996 24.5246 34.3637 24.8379 34.3043 25.2125L35.0766 25.334C35.1047 25.1523 35.2812 24.9184 35.452 24.6918C35.7086 24.3508 36 23.9641 36 23.5C36 23.0359 35.7086 22.6492 35.452 22.3082ZM32.2516 30.7348C31.8852 30.8465 31.5059 30.9621 31.234 31.2344C30.9617 31.5063 30.8461 31.8855 30.734 32.252C30.6422 32.5539 30.5469 32.866 30.3883 32.9812C30.232 33.0949 29.9047 33.0895 29.5922 33.0848C29.2078 33.0785 28.8109 33.0723 28.4656 33.248C28.1254 33.4219 27.8996 33.7449 27.6812 34.0574C27.4992 34.3176 27.3113 34.5863 27.1223 34.648C26.941 34.7074 26.6355 34.602 26.3395 34.4996C25.9746 34.3742 25.5969 34.2465 25.2121 34.3043C24.8375 34.3633 24.5242 34.5996 24.2215 34.8277C23.9664 35.0199 23.7027 35.2188 23.5 35.2188C23.2973 35.2188 23.0336 35.0199 22.7781 34.8277C22.4754 34.5996 22.1617 34.3637 21.7875 34.3043C21.4035 34.2465 21.025 34.3742 20.6602 34.4996C20.3645 34.6016 20.059 34.7074 19.8773 34.648C19.6887 34.5867 19.5004 34.3176 19.3187 34.0574C19.1 33.7445 18.8742 33.4215 18.534 33.2477C18.1895 33.0719 17.7918 33.0781 17.4082 33.0848C17.0934 33.0887 16.768 33.0953 16.6113 32.9809C16.4531 32.8656 16.3578 32.5535 16.2656 32.2516C16.1535 31.8852 16.0379 31.5059 15.7656 31.234C15.4934 30.9617 15.1145 30.8461 14.7477 30.734C14.4457 30.6422 14.1332 30.5469 14.0184 30.3883L13.3867 30.8484C13.6555 31.2176 14.1148 31.3578 14.5195 31.4812C14.7945 31.5652 15.0789 31.652 15.2133 31.7863C15.3477 31.9207 15.4344 32.2047 15.5184 32.4797C15.6418 32.8848 15.782 33.3438 16.1516 33.6125C16.5191 33.8809 16.998 33.8719 17.4211 33.8652C17.709 33.8621 18.0078 33.8559 18.1789 33.943C18.3457 34.0281 18.5148 34.2703 18.6785 34.5047C18.9223 34.8535 19.1984 35.2484 19.6363 35.391C20.0656 35.5293 20.5168 35.3754 20.9148 35.2379C21.1895 35.1437 21.4738 35.043 21.6664 35.0762C21.848 35.1043 22.082 35.2809 22.3082 35.4516C22.6492 35.7086 23.0359 36 23.5 36C23.9641 36 24.3508 35.7086 24.6918 35.452C24.918 35.2812 25.1523 35.1047 25.334 35.0766C25.5246 35.043 25.8109 35.1437 26.0855 35.2383C26.484 35.3758 26.9352 35.5312 27.3637 35.3914C27.8016 35.2496 28.0777 34.8539 28.3215 34.5051C28.4852 34.2711 28.6547 34.0289 28.8211 33.9438C28.9922 33.8559 29.2898 33.8605 29.5789 33.866C29.9988 33.8727 30.4797 33.8809 30.848 33.6133C31.2172 33.3445 31.3574 32.8855 31.4809 32.4805C31.5648 32.2059 31.6516 31.9211 31.7859 31.7871C31.9203 31.6527 32.2043 31.566 32.4789 31.4824C32.884 31.359 33.3434 31.2184 33.6121 30.8488L32.9805 30.3895C32.866 30.5473 32.5535 30.6422 32.2516 30.7348Z" fill="#FAE042"/>
<path d="M14.125 28.9688V28.1875C14.125 27.9715 13.95 27.7969 13.7344 27.7969H12.9531V28.5781H13.3438V28.9688C13.3438 29.1844 13.1684 29.3594 12.9531 29.3594C12.7379 29.3594 12.5625 29.1844 12.5625 28.9688V26.625C12.5625 26.4094 12.7379 26.2344 12.9531 26.2344C13.1684 26.2344 13.3438 26.4094 13.3438 26.625V27.0156H14.125V26.625C14.125 25.9789 13.5992 25.4531 12.9531 25.4531C12.307 25.4531 11.7812 25.9789 11.7812 26.625V28.9688C11.7812 29.6148 12.307 30.1406 12.9531 30.1406C13.5992 30.1406 14.125 29.6148 14.125 28.9688ZM14.5156 25.4531V28.9688C14.5156 29.6148 15.0414 30.1406 15.6875 30.1406C16.3336 30.1406 16.8594 29.6148 16.8594 28.9688V25.4531H16.0781V28.9688C16.0781 29.1844 15.9027 29.3594 15.6875 29.3594C15.4723 29.3594 15.2969 29.1844 15.2969 28.9688V25.4531H14.5156ZM17.25 26.625V30.1406H18.0312V29.3594H18.8125V30.1406H19.5938V26.625C19.5938 25.9789 19.068 25.4531 18.4219 25.4531C17.7758 25.4531 17.25 25.9789 17.25 26.625ZM18.8125 26.625V28.5781H18.0312V26.625C18.0312 26.4094 18.2066 26.2344 18.4219 26.2344C18.6371 26.2344 18.8125 26.4094 18.8125 26.625ZM22.7188 26.625V30.1406H23.5V29.3594H24.2812V30.1406H25.0625V26.625C25.0625 25.9789 24.5367 25.4531 23.8906 25.4531C23.2445 25.4531 22.7188 25.9789 22.7188 26.625ZM23.8906 26.2344C24.1062 26.2344 24.2812 26.4094 24.2812 26.625V28.5781H23.5V26.625C23.5 26.4094 23.6754 26.2344 23.8906 26.2344ZM19.9844 25.8438V27.7953C19.9844 27.7965 19.9844 27.7973 19.9844 27.798V30.1406H20.7656V28.9105L21.6324 29.9941C21.7066 30.0867 21.8188 30.1406 21.9375 30.1406H22.3281V29.3594H22.125L21.1742 28.1707C21.8273 28.068 22.3281 27.5016 22.3281 26.8203C22.3281 26.0664 21.7148 25.4531 20.9609 25.4531H20.375C20.1594 25.4531 19.9844 25.6277 19.9844 25.8438ZM20.7656 26.2344H20.9609C21.284 26.2344 21.5469 26.4973 21.5469 26.8203C21.5469 27.1434 21.284 27.4062 20.9609 27.4062H20.7656V26.2344ZM27.0156 27.7219L26.2066 25.6988C26.1367 25.5242 25.9508 25.427 25.7699 25.4602C25.5859 25.4953 25.4531 25.6566 25.4531 25.8438V30.1406H26.2344V27.8719L27.0434 29.8949C27.1039 30.0457 27.2492 30.1406 27.4059 30.1406C27.4305 30.1406 27.4555 30.1383 27.4801 30.1336C27.6641 30.0984 27.7969 29.9371 27.7969 29.75V25.4531H27.0156V27.7219ZM29.75 26.2344H30.5312V25.4531H28.1875V26.2344H28.9688V30.1406H29.75V26.2344ZM32.875 26.2344V25.4531H31.3125C31.0965 25.4531 30.9219 25.6277 30.9219 25.8438V29.75C30.9219 29.966 31.0965 30.1406 31.3125 30.1406H32.875V29.3594H31.7031V28.1875H32.875V27.4062H31.7031V26.2344H32.875ZM33.2656 25.8438V29.75C33.2656 29.966 33.4402 30.1406 33.6562 30.1406H35.2188V29.3594H34.0469V28.1875H35.2188V27.4062H34.0469V26.2344H35.2188V25.4531H33.6562C33.4402 25.4531 33.2656 25.6277 33.2656 25.8438Z" fill="#FAE042"/>
<path d="M33.2656 23.5C33.2656 18.1152 28.8848 13.7344 23.5 13.7344C18.1152 13.7344 13.7344 18.1152 13.7344 23.5C13.7344 23.8934 13.7609 24.3039 13.8129 24.7203L14.5879 24.6234C14.5398 24.2391 14.5156 23.8609 14.5156 23.5C14.5156 18.5461 18.5461 14.5156 23.5 14.5156C28.4543 14.5156 32.4844 18.5461 32.4844 23.5C32.4844 23.8609 32.4602 24.2391 32.4117 24.6234L33.1867 24.7203C33.2395 24.3039 33.2656 23.8934 33.2656 23.5ZM29.4637 31.2309L28.9859 30.6129C27.4004 31.8371 25.5039 32.4844 23.5 32.4844C21.4965 32.4844 19.5996 31.8371 18.0145 30.6129L17.5367 31.2309C19.2602 32.5621 21.3219 33.2656 23.5 33.2656C25.6781 33.2656 27.7402 32.5621 29.4637 31.2309Z" fill="#FAE042"/>
<path d="M19.5938 19.2031H18.8125V19.9844H19.2031V23.8906H19.9844V19.5938C19.9844 19.3781 19.8094 19.2031 19.5938 19.2031ZM21.7422 19.2031C20.9883 19.2031 20.375 19.8164 20.375 20.5703V22.5234C20.375 23.2773 20.9883 23.8906 21.7422 23.8906C22.4961 23.8906 23.1094 23.2773 23.1094 22.5234V20.5703C23.1094 19.8164 22.4961 19.2031 21.7422 19.2031ZM22.3281 22.5234C22.3281 22.8465 22.0652 23.1094 21.7422 23.1094C21.4191 23.1094 21.1562 22.8465 21.1562 22.5234V20.5703C21.1562 20.2473 21.4191 19.9844 21.7422 19.9844C22.0652 19.9844 22.3281 20.2473 22.3281 20.5703V22.5234ZM24.8672 19.2031C24.1133 19.2031 23.5 19.8164 23.5 20.5703V22.5234C23.5 23.2773 24.1133 23.8906 24.8672 23.8906C25.6211 23.8906 26.2344 23.2773 26.2344 22.5234V20.5703C26.2344 19.8164 25.6211 19.2031 24.8672 19.2031ZM25.4531 22.5234C25.4531 22.8465 25.1902 23.1094 24.8672 23.1094C24.5441 23.1094 24.2812 22.8465 24.2812 22.5234V20.5703C24.2812 20.2473 24.5441 19.9844 24.8672 19.9844C25.1902 19.9844 25.4531 20.2473 25.4531 20.5703V22.5234Z" fill="#FAE042"/>
<path d="M27.4463 23.3254L29.0088 20.2004L29.7076 20.5497L28.1451 23.6747L27.4463 23.3254Z" fill="#FAE042"/>
<path d="M27.7969 20.7656H27.0156V21.5469H27.7969V20.7656Z" fill="#FAE042"/>
<path d="M30.1406 22.3281H29.3594V23.1094H30.1406V22.3281Z" fill="#FAE042"/>
<defs>
<linearGradient id="paint0_linear_73_37" x1="23.5" y1="47" x2="23.5" y2="-21.8214" gradientUnits="userSpaceOnUse">
<stop/>
<stop offset="1" stop-color="#363636"/>
</linearGradient>
</defs>
</svg>
