<svg width="47" height="47" viewBox="0 0 47 47" fill="none" xmlns="http://www.w3.org/2000/svg">
<circle cx="23.5" cy="23.5" r="23.5" fill="url(#paint0_linear_62_76)" fill-opacity="0.75"/>
<path d="M18.6653 14.9291C18.4689 14.7158 18.2073 14.5984 17.929 14.5984C17.6507 14.5984 17.3894 14.7158 17.1927 14.9291C16.7886 15.3676 16.7886 16.0811 17.1927 16.5196C17.3892 16.733 17.6507 16.8504 17.929 16.8504C18.2073 16.8504 18.4689 16.733 18.6653 16.5196C19.0694 16.0811 19.0694 15.3676 18.6653 14.9291ZM18.1231 15.9386C18.0711 15.995 18.0023 16.0259 17.929 16.0259C17.8558 16.0259 17.7869 15.995 17.7349 15.9386C17.6259 15.8205 17.6259 15.6282 17.7347 15.5102C17.7867 15.4537 17.8558 15.4226 17.929 15.4226C18.0023 15.4226 18.0711 15.4537 18.1231 15.5102C18.232 15.6282 18.232 15.8205 18.1231 15.9386Z" fill="#FAE042"/>
<path d="M30.9651 14.384C30.7685 14.1872 30.5071 14.0789 30.2288 14.0789C29.9505 14.0789 29.689 14.1872 29.4925 14.3842C29.0884 14.7887 29.0884 15.4475 29.4925 15.8523C29.689 16.0492 29.9505 16.1576 30.2288 16.1576C30.5071 16.1576 30.7685 16.0492 30.9651 15.8523C31.3692 15.4473 31.3692 14.7887 30.9651 14.384ZM30.4231 15.316C30.3709 15.3679 30.3021 15.3966 30.2288 15.3966C30.1556 15.3966 30.0867 15.3681 30.0347 15.316C29.9257 15.2068 29.9257 15.0295 30.0345 14.9205C30.0867 14.8684 30.1556 14.8397 30.2288 14.8397C30.3021 14.8397 30.3709 14.8684 30.4231 14.9205C30.5318 15.0295 30.5318 15.2068 30.4231 15.316Z" fill="#FAE042"/>
<path d="M31.9291 28.4568C31.7205 28.4568 31.5513 28.6258 31.5513 28.8346C31.5513 31.2661 29.5732 33.2444 27.1415 33.2444C26.9329 33.2444 26.7637 33.4134 26.7637 33.6222C26.7637 33.8308 26.9329 34.0001 27.1415 34.0001C29.9898 34.0001 32.307 31.6828 32.307 28.8346C32.307 28.6258 32.1379 28.4568 31.9291 28.4568Z" fill="#FAE042"/>
<path d="M30.7064 28.4568C30.4922 28.4568 30.3184 28.6234 30.3184 28.8293C30.3184 30.5057 28.8977 31.8693 27.1517 31.8693C26.9373 31.8693 26.7637 32.0361 26.7637 32.2418C26.7637 32.4476 26.9373 32.6143 27.1517 32.6143C29.3257 32.6143 31.0944 30.9164 31.0944 28.8291C31.0944 28.6234 30.9208 28.4568 30.7064 28.4568Z" fill="#FAE042"/>
<path d="M19.1098 33.2444C16.6781 33.2444 14.7001 31.2661 14.7001 28.8346C14.7001 28.626 14.5308 28.4568 14.3222 28.4568C14.1134 28.4568 13.9443 28.626 13.9443 28.8346C13.9443 31.683 16.2615 34.0001 19.1098 34.0001C19.3184 34.0001 19.4876 33.8308 19.4876 33.6222C19.4876 33.4134 19.3184 33.2444 19.1098 33.2444Z" fill="#FAE042"/>
<path d="M19.0999 31.8693C17.3538 31.8693 15.9332 30.5055 15.9332 28.8293C15.9332 28.6234 15.7596 28.4568 15.5452 28.4568C15.331 28.4568 15.1572 28.6234 15.1572 28.8293C15.1572 30.9164 16.926 32.6143 19.0999 32.6143C19.3141 32.6143 19.4879 32.4476 19.4879 32.2418C19.4879 32.0361 19.3141 31.8693 19.0999 31.8693Z" fill="#FAE042"/>
<path d="M37.1218 18.3997L36.1573 17.4295C36.0072 17.2785 35.763 17.2779 35.6119 17.4279C35.4608 17.578 35.46 17.8222 35.6103 17.9733L36.5392 18.9079L34.4029 21.0572C34.3503 21.1103 34.2824 21.1382 34.2071 21.1382C34.1315 21.1382 34.0638 21.1103 34.0112 21.0572L28.3298 15.3413C28.2762 15.2872 28.2477 15.2179 28.2477 15.1408C28.2477 15.0637 28.2762 14.9944 28.3298 14.9403L30.4627 12.7944L34.3071 16.661C34.4574 16.8118 34.7017 16.8126 34.8527 16.6626C35.0038 16.5123 35.0046 16.2683 34.8543 16.1172L30.9711 12.2117C30.8355 12.0751 30.6549 12 30.4627 12C30.2706 12 30.09 12.0751 29.9544 12.2115L27.7826 14.3966C27.5849 14.5952 27.4762 14.8596 27.4762 15.1408C27.4762 15.4218 27.5849 15.6862 27.7826 15.885L28.1326 16.2372L27.5566 16.8167C27.4349 16.939 27.15 17.0513 26.9734 17.0424L25.925 16.9898C25.534 16.9699 25.0302 17.166 24.756 17.442L23.9966 18.2059L23.3658 17.5711C23.1352 17.3391 22.7535 17.1893 22.3933 17.1893C22.3057 17.1893 22.2214 17.1983 22.1428 17.2162L21.324 17.4024C21.3017 17.4074 21.2742 17.41 21.2446 17.41C21.0741 17.41 20.8945 17.3317 20.8192 17.2558L20.2997 16.7333L20.548 16.4834C20.7452 16.2852 20.8539 16.0208 20.8539 15.7392C20.8539 15.4578 20.7452 15.1934 20.5482 14.995L18.3763 12.8099C18.2427 12.6753 18.0573 12.5982 17.8681 12.5982C17.6758 12.5982 17.4954 12.6733 17.3596 12.8099L11.209 18.9979C10.9303 19.2781 10.9303 19.7341 11.209 20.0143L13.3804 22.1988C13.5781 22.398 13.842 22.5079 14.1237 22.5079C14.4051 22.5079 14.6689 22.3982 14.8668 22.1992L15.1119 21.9527L15.6278 22.4718C15.7405 22.5852 15.8252 22.8512 15.7991 23.0089L15.6846 23.6977C15.6181 24.098 15.7836 24.6168 16.0697 24.9047L16.8849 25.7248L16.4741 26.1382C16.0253 26.5898 16.0253 27.3246 16.4741 27.7763L17.003 28.3084C17.1567 28.4631 17.3472 28.5676 17.5547 28.6162C17.5019 28.9677 17.6091 29.3391 17.8775 29.6091L18.4065 30.1414C18.608 30.3443 18.8721 30.4612 19.156 30.4776C19.1709 30.7522 19.2821 31.0224 19.4901 31.2317L20.019 31.7638C20.2366 31.9827 20.5271 32.1033 20.8364 32.1033C20.9831 32.1033 21.1249 32.0753 21.2573 32.0237C21.3131 32.1746 21.3999 32.3162 21.5205 32.4371L22.05 32.9686C22.2676 33.1868 22.5573 33.3071 22.866 33.3071C23.1762 33.3071 23.4669 33.186 23.6846 32.966L23.816 32.833C23.8594 32.7892 23.8972 32.7422 23.9321 32.6936C24.0732 32.7541 24.2258 32.7872 24.3843 32.7872C24.6937 32.7872 24.984 32.6665 25.2016 32.4476L25.8042 31.8413C26.0122 31.632 26.1224 31.3619 26.1377 31.0875C26.4218 31.0712 26.6861 30.9541 26.8878 30.7512L27.4905 30.1448C27.6984 29.9357 27.8087 29.6655 27.824 29.3909C28.108 29.3747 28.3722 29.2575 28.5739 29.0547L29.1766 28.4482C29.3847 28.2391 29.495 27.969 29.5103 27.6944C29.7941 27.6781 30.0583 27.561 30.26 27.3583L30.8629 26.7519C31.2066 26.406 31.2859 25.8944 31.1031 25.4707L31.9227 24.6462C32.1887 24.3786 32.4041 23.8929 32.424 23.5163L32.4692 22.6594C32.4792 22.4712 32.6142 22.1664 32.7472 22.0327L33.3199 21.4566L33.4636 21.6008C33.6615 21.7998 33.9252 21.9095 34.2065 21.9095C34.4879 21.9095 34.7517 21.7998 34.9496 21.6008L37.1212 19.4161C37.2564 19.2801 37.3307 19.0998 37.3307 18.9077C37.3311 18.7159 37.2568 18.5355 37.1218 18.3997ZM17.8207 27.8768C17.718 27.8768 17.6222 27.837 17.5505 27.7647L17.0215 27.2326C16.8707 27.0807 16.8707 26.8338 17.0215 26.6822L17.7767 25.9223C17.8484 25.8502 17.9444 25.8104 18.0469 25.8104C18.1495 25.8104 18.2454 25.8502 18.3171 25.9223L18.846 26.4544C18.9969 26.6063 18.9969 26.8531 18.846 27.005L18.0909 27.7647C18.0191 27.837 17.9231 27.8768 17.8207 27.8768ZM19.2241 29.7097C19.1214 29.7097 19.0256 29.6699 18.9539 29.5978L18.4249 29.0657C18.2741 28.9139 18.2741 28.6668 18.4249 28.5151C18.4249 28.5151 19.4139 27.5254 19.4244 27.514C19.4911 27.4616 19.5728 27.433 19.6596 27.433C19.7621 27.433 19.8581 27.4726 19.9298 27.5449L20.4588 28.077C20.6096 28.2289 20.6096 28.4758 20.4588 28.6274L19.4943 29.5978C19.4226 29.6699 19.3265 29.7097 19.2241 29.7097ZM21.1068 31.2202C21.0351 31.2924 20.9393 31.3321 20.8366 31.3321C20.7342 31.3321 20.6382 31.2924 20.5664 31.2202L20.0375 30.6881C19.8981 30.5477 19.8878 30.3262 20.0064 30.1735C20.018 30.1627 21.0265 29.1479 21.0371 29.1364C21.1036 29.084 21.1856 29.0553 21.2722 29.0553C21.3748 29.0553 21.4706 29.095 21.5424 29.1672L22.0713 29.6995C22.2222 29.8511 22.2222 30.098 22.0713 30.2498L21.1068 31.2202ZM23.268 32.2909L23.1366 32.4237C23.0649 32.496 22.9689 32.5359 22.8662 32.5359C22.7642 32.5357 22.6683 32.4964 22.5968 32.4245L22.0673 31.893C21.9329 31.758 21.92 31.539 22.0283 31.3876L22.2475 31.167C22.3114 31.1216 22.3875 31.0967 22.4681 31.0967C22.5701 31.0967 22.6657 31.1363 22.7375 31.208L23.267 31.7397C23.4157 31.8887 23.4161 32.1412 23.268 32.2909ZM32.2006 21.4889C31.9346 21.7565 31.7192 22.2422 31.6994 22.6188L31.654 23.4757C31.6441 23.6641 31.5089 23.9686 31.3759 24.1024L30.6168 24.8663L26.7137 20.9393C26.7755 20.9415 26.835 20.9478 26.8907 20.959C26.9676 20.9747 28.7887 21.3238 29.9844 19.8201C30.1169 19.6533 30.0892 19.4107 29.9225 19.2781C29.7557 19.1455 29.5131 19.1733 29.3805 19.34C28.4839 20.4677 27.1008 20.2142 27.0439 20.2031C26.3645 20.0653 25.4493 20.3427 24.9605 20.8345L22.9795 22.8275C22.8596 22.9482 22.6993 23.0147 22.5281 23.0147C22.3568 23.0147 22.1965 22.9482 22.0765 22.8275L21.7382 22.4872C21.4875 22.2349 21.4875 21.8244 21.7382 21.5719L22.2485 21.0586C22.3988 20.9076 22.3979 20.6633 22.2469 20.5133C22.0958 20.363 21.8515 20.3638 21.7015 20.5149L21.1912 21.0283C20.6424 21.5803 20.6424 22.4788 21.1912 23.031L21.5295 23.3713C21.7953 23.6388 22.1498 23.786 22.5281 23.786C22.9062 23.786 23.2608 23.6388 23.5265 23.3713L25.5075 21.3782C25.5937 21.2916 25.7066 21.2143 25.8334 21.1492L30.3156 25.6578C30.4665 25.8096 30.4665 26.0565 30.3156 26.2083L29.713 26.8148C29.6412 26.8869 29.5452 26.9267 29.4428 26.9267C29.3566 26.9267 29.2752 26.8981 29.2089 26.8465C29.1981 26.8347 29.1882 26.822 29.1768 26.8105L26.34 23.9566C26.1897 23.8055 25.9457 23.8047 25.7946 23.9548C25.7938 23.9556 25.7932 23.9564 25.7924 23.9572C25.7918 23.9578 25.7912 23.9584 25.7904 23.959C25.6393 24.1092 25.6387 24.3533 25.7888 24.5046L28.6255 27.3585C28.637 27.3702 28.6496 27.3804 28.6617 27.3915C28.7792 27.5441 28.7688 27.7649 28.6296 27.9049L28.0269 28.5113C27.9552 28.5834 27.8591 28.6232 27.7567 28.6232C27.6705 28.6232 27.5891 28.5949 27.5227 28.5431C27.5118 28.5312 27.502 28.5187 27.4905 28.5071L24.6537 25.6531C24.5037 25.5021 24.2594 25.5013 24.1083 25.6513C24.1075 25.6523 24.1067 25.6531 24.1059 25.6541C24.1053 25.6545 24.1049 25.6551 24.1043 25.6555C23.9532 25.8056 23.9524 26.0499 24.1025 26.2009C24.1025 26.2009 26.9636 29.077 26.9756 29.088C27.0929 29.2407 27.0827 29.4614 26.9435 29.6014L26.3408 30.2079C26.2691 30.28 26.1731 30.3195 26.0706 30.3195C25.9842 30.3195 25.9027 30.2912 25.8362 30.2392C25.8255 30.2273 25.8157 30.2151 25.8044 30.2036L22.9677 27.3497C22.8174 27.1984 22.5733 27.1978 22.4223 27.3479C22.4215 27.3487 22.4208 27.3495 22.42 27.3503C22.4194 27.3509 22.4186 27.3515 22.418 27.3521C22.267 27.5021 22.2662 27.7464 22.4164 27.8975L25.2532 30.7514C25.2646 30.7631 25.2771 30.7731 25.289 30.7842C25.4069 30.9368 25.3964 31.1578 25.2572 31.2978L24.6545 31.9042C24.5828 31.9763 24.4868 32.0161 24.3843 32.0161C24.2968 32.0161 24.2142 31.9868 24.1473 31.9335C24.1284 31.6642 24.0177 31.4002 23.8134 31.1953L23.2837 30.6636C23.166 30.5455 23.0263 30.4573 22.8745 30.4005C23.0374 29.9843 22.9524 29.4918 22.6183 29.1559L22.0894 28.6236C21.8877 28.4207 21.6233 28.3036 21.3393 28.2873C21.3242 28.013 21.2137 27.7426 21.0058 27.5333L20.4768 27.0012C20.2751 26.7983 20.0106 26.6812 19.7267 26.6649C19.7114 26.3903 19.6012 26.1202 19.3932 25.9109L18.8643 25.3787C18.6465 25.1598 18.3564 25.0391 18.0469 25.0391C17.8343 25.0391 17.6316 25.0971 17.4544 25.2038L16.6173 24.3609C16.5046 24.2476 16.4197 23.9817 16.446 23.824L16.5603 23.1352C16.627 22.7349 16.4612 22.2158 16.1752 21.9282L15.6559 21.4055L16.1029 20.9558C16.2531 20.8047 16.2523 20.5607 16.1013 20.4104C15.9502 20.2604 15.7059 20.261 15.5558 20.4122L14.32 21.6556C14.2673 21.7087 14.1996 21.7366 14.1241 21.7366C14.0486 21.7366 13.9809 21.7087 13.928 21.6554L11.792 19.5063L17.8681 13.3926L20.0009 15.5385C20.0542 15.5924 20.0825 15.6617 20.0825 15.739C20.0825 15.8165 20.0544 15.8858 20.0009 15.9397L16.8375 19.1198C16.6872 19.2709 16.6881 19.5151 16.8391 19.6654C16.9902 19.8155 17.2345 19.8146 17.3845 19.6636L19.7558 17.2803L20.2719 17.7995C20.5026 18.0315 20.8842 18.1814 21.2446 18.1814C21.3322 18.1814 21.4164 18.1723 21.4949 18.1545L22.3138 17.9682C22.3361 17.9632 22.3636 17.9606 22.3933 17.9606C22.5637 17.9606 22.7433 18.039 22.8188 18.1149L23.453 18.753L22.9841 19.2227C22.8339 19.3737 22.8345 19.6178 22.9856 19.768C23.0607 19.843 23.1591 19.8803 23.2576 19.8803C23.3566 19.8803 23.4556 19.8424 23.531 19.7666L25.303 17.9857C25.4207 17.8674 25.6901 17.7595 25.8685 17.7595C25.8746 17.7595 25.8804 17.7597 25.8862 17.7599L26.9346 17.8126C26.9531 17.8136 26.972 17.814 26.9911 17.814C27.3746 17.814 27.8425 17.6234 28.1036 17.3604L28.6764 16.7841L32.7767 20.9094L32.2006 21.4889Z" fill="#FAE042"/>
<defs>
<linearGradient id="paint0_linear_62_76" x1="23.5" y1="47" x2="23.5" y2="-21.8214" gradientUnits="userSpaceOnUse">
<stop/>
<stop offset="1" stop-color="#363636"/>
</linearGradient>
</defs>
</svg>
