<svg width="21" height="22" viewBox="0 0 21 22" fill="none" xmlns="http://www.w3.org/2000/svg">
<path d="M19.9198 12.6444L19.1222 11.8226C19.1856 11.0908 19.1856 10.3549 19.1222 9.6231L19.8714 8.87384C20.5487 8.2388 20.6711 7.20868 20.1615 6.43257L19.0013 4.42637C18.5831 3.50955 17.5373 3.05975 16.5843 3.38707L15.6175 3.70125C15.0159 3.22154 14.3484 2.83077 13.6355 2.54106L13.3455 1.50176C13.1659 0.589243 12.3403 -0.0505602 11.4118 0.00314394H8.99465C8.06446 -0.00603335 7.25618 0.640569 7.06096 1.55003L6.84342 2.56519C6.52777 2.7075 6.22096 2.86895 5.9249 3.04864C5.52552 3.22313 5.15152 3.45075 4.81309 3.72538L3.77379 3.38696C2.88303 3.13079 1.93482 3.53436 1.50179 4.35374L0.389976 6.26319C-0.218784 7.07725 -0.103331 8.2218 0.655891 8.89775L1.45352 9.647C1.34872 10.3846 1.34872 11.1332 1.45352 11.8707L0.655891 12.6442C-0.0322922 13.257 -0.184794 14.2737 0.293332 15.0613L1.5019 17.14C1.96145 18.0111 2.991 18.4126 3.91893 18.0826L4.95823 17.7442C5.57118 18.1941 6.22696 18.5827 6.91605 18.9044L7.15772 20.0162C7.41026 20.864 8.18274 21.4506 9.06716 21.4664H11.4842C12.3769 21.4749 13.1623 20.8784 13.3936 20.0162L13.6837 18.9044C14.0064 18.767 14.3141 18.5969 14.6022 18.3968C14.9607 18.2122 15.3006 17.9937 15.6174 17.7442L16.6567 18.0826C17.6102 18.4222 18.6642 17.969 19.0737 17.0433L20.2339 15.0614C20.7142 14.2829 20.5831 13.2743 19.9198 12.6444ZM17.0193 15.7141L15.7383 15.3032C15.3287 15.1663 14.8772 15.2585 14.5539 15.5448C14.1907 15.8795 13.7842 16.164 13.3454 16.3908C12.9873 16.6222 12.6068 16.8166 12.2093 16.9709C11.8651 17.1145 11.6064 17.4088 11.5083 17.7686L11.1458 19.1222H9.38134L9.11543 17.8411C9.03102 17.4286 8.73803 17.0898 8.34193 16.9468C7.46657 16.5902 6.65138 16.1011 5.9249 15.4966C5.60336 15.2441 5.17588 15.1714 4.78884 15.3032L3.50776 15.7141L2.61349 14.1913L3.67703 13.1762C3.98056 12.8826 4.10882 12.452 4.01546 12.0401C3.83656 11.2444 3.83656 10.4188 4.01546 9.6231C4.11199 9.19936 3.97354 8.75635 3.6529 8.46291L2.6136 7.49612L3.50788 5.97337L4.76471 6.38431C5.17463 6.51607 5.62364 6.42453 5.94904 6.14264C6.27647 5.82778 6.65172 5.56673 7.06085 5.36914C7.37344 5.08623 7.71357 4.83516 8.07601 4.61989C8.4814 4.48381 8.78471 4.1438 8.87365 3.72561L9.13956 2.46878H10.904L11.2665 3.82237C11.3679 4.20181 11.6473 4.50829 12.0158 4.64413C12.8604 4.91367 13.6303 5.3773 14.2637 5.99773C14.5917 6.32856 15.0807 6.44141 15.5205 6.28778L16.8016 5.8527L17.7201 7.39959L16.7291 8.39062C16.4644 8.6579 16.3393 9.03314 16.3906 9.40579C16.5341 10.3091 16.5584 11.2274 16.4632 12.1371H16.584C16.5404 12.5017 16.6649 12.8663 16.9225 13.1281L17.9135 14.1674L17.0193 15.7141Z" fill="#4A4A4A"/>
<path d="M10.1303 7.06104C8.12397 7.10069 6.52611 8.7526 6.55307 10.7591C6.52633 12.7213 8.09531 14.3335 10.0574 14.3604C10.0818 14.3607 10.106 14.3608 10.1304 14.3606C12.1187 14.414 13.7738 12.8454 13.8273 10.8571C13.8282 10.8245 13.8286 10.7918 13.8285 10.7591C13.8284 8.7168 12.1726 7.06104 10.1303 7.06104ZM11.4114 10.7109C11.4403 11.3644 10.934 11.9175 10.2805 11.9464C10.2304 11.9487 10.1803 11.9477 10.1303 11.9435V11.8951C9.48958 11.8952 8.96998 11.3759 8.96987 10.7351C8.96987 10.727 8.96998 10.7188 8.9701 10.7106C8.94256 10.0387 9.45887 9.46866 10.1303 9.42957C10.8242 9.41609 11.3979 9.96774 11.4114 10.6618C11.4116 10.6782 11.4116 10.6946 11.4114 10.7109Z" fill="#4A4A4A"/>
</svg>
